<?xml version="1.0" encoding="utf-8"?>
<!-- Generator: Adobe Illustrator 21.0.0, SVG Export Plug-In . SVG Version: 6.00 Build 0)  -->

<svg width="1271" height="332" viewBox="0 0 1271 332" fill="none" xmlns="http://www.w3.org/2000/svg">
<path d="M261.251 9.23583C239.637 0.235826 215.397 -2.24417 192.384 2.04916C164.344 7.16916 138.384 22.6358 120.437 44.7692C109.477 57.9825 101.824 73.6625 97.0774 90.1025C81.424 93.9825 66.0641 99.8492 52.8107 109.223C26.8374 126.956 8.17072 155.102 2.30405 186.049C-2.77595 211.276 0.637371 238.063 11.624 261.316C25.864 291.703 53.2374 315.609 85.3041 325.516C105.624 331.996 127.517 332.422 148.397 328.622C175.851 323.729 201.771 310.822 222.331 291.996C231.334 283.851 240.363 275.732 249.393 267.613C260.704 257.444 272.015 247.273 283.277 237.049C292.051 229.276 294.491 215.582 289.264 205.169C286.909 200.025 282.69 196.324 278.5 192.648C277.021 191.35 275.546 190.056 274.157 188.702C274.203 189.177 274.254 189.658 274.305 190.146C274.875 195.579 275.517 201.703 270.904 205.569C260.621 214.939 250.233 224.195 239.845 233.451C228.075 243.937 216.306 254.424 204.691 265.076C189.904 279.809 171.184 290.582 150.944 295.716C131.997 300.476 111.517 301.076 92.864 294.716C74.544 288.569 58.2907 276.356 47.424 260.356C34.4774 241.529 28.984 217.689 32.7707 195.143C36.4507 172.103 49.4907 150.702 68.3574 136.969C82.4374 126.569 99.6374 120.676 117.091 119.689C121.051 119.636 124.891 116.756 125.157 112.636C126.837 98.8892 131.077 85.3291 138.597 73.6225C151.584 52.8492 173.424 37.8758 197.491 33.2625C214.144 30.1958 231.704 31.5025 247.491 37.8092C270.357 46.6625 288.997 65.3825 298.251 88.0492C264.811 89.5425 231.931 102.302 206.704 124.369L206.092 124.919C185.19 143.682 164.301 162.433 143.477 181.262C135.477 188.182 132.331 199.929 135.664 209.942C137.437 216.182 142.064 221.009 146.851 225.156C147.064 225.255 147.278 225.355 147.492 225.456C147.492 225.456 147.492 225.456 147.492 225.456C147.278 225.355 147.064 225.255 146.851 225.156C149.544 227.676 152.251 230.169 155.077 232.556C152.771 228.036 151.957 222.983 151.784 217.969C151.353 220.282 151.046 222.619 150.74 224.955C150.658 225.582 150.575 226.209 150.491 226.836C150.491 226.836 150.491 226.836 150.491 226.836C150.575 226.209 150.658 225.582 150.74 224.955C151.046 222.619 151.353 220.282 151.784 217.969C152.904 216.343 154.077 214.756 155.397 213.276C166.847 202.767 178.454 192.43 190.06 182.095C200.335 172.945 210.609 163.796 220.771 154.529C243.144 131.756 275.144 118.609 307.104 119.796C332.717 120.396 357.837 132.662 373.931 152.622C386.077 167.236 393.104 185.862 394.224 204.796C395.451 226.889 388.077 249.316 374.064 266.422C361.571 281.956 343.651 292.929 324.224 297.316C303.584 302.169 281.291 299.102 262.571 289.209C258.664 286.916 253.144 286.902 249.824 290.236C247.558 292.237 245.319 294.269 243.079 296.302C239.232 299.793 235.384 303.285 231.397 306.622C252.691 323.289 280.104 331.796 307.077 331.062C336.011 330.716 364.557 319.182 385.944 299.729C400.531 286.543 411.864 269.769 418.597 251.276C426.317 230.342 427.597 207.262 423.504 185.422C417.611 155.369 399.517 128.182 374.611 110.502C362.064 101.369 347.597 95.2892 332.704 91.1825C331.844 88.9762 331.138 86.7157 330.431 84.4561C329.493 81.4583 328.557 78.462 327.264 75.5958C315.251 45.8758 290.917 21.4092 261.251 9.23583Z" fill="#0084CF"/>
<path d="M224.371 176.662C233.464 168.289 248.384 167.396 258.291 174.849C263.811 179.209 268.771 184.209 274.157 188.702C274.717 194.462 275.931 201.356 270.904 205.569C267.104 202.329 263.731 198.009 258.691 196.756C254.411 195.702 250.411 198.276 247.411 201.049C233.891 213.329 220.264 225.476 206.757 237.756C203.677 240.489 200.664 243.356 197.091 245.422C190.891 249.049 183.224 249.342 176.371 247.782C167.557 245.529 161.944 237.889 155.077 232.556C152.771 228.036 151.957 222.982 151.784 217.969C152.904 216.342 154.077 214.756 155.397 213.276C159.904 216.422 163.491 222.356 169.664 221.849C172.851 222.129 175.744 220.662 177.971 218.502C193.411 204.542 208.891 190.582 224.371 176.662Z" fill="#90C221"/>
<path d="M923.531 71.5425C929.068 71.1482 934.617 71.2003 940.162 71.2524C943.242 71.2813 946.322 71.3102 949.397 71.2625C949.374 73.9074 949.258 76.5497 949.142 79.1928C948.994 82.5723 948.846 85.9533 948.891 89.3425C965.184 89.1335 981.477 89.1976 997.771 89.2616L997.786 89.2617C1000.19 89.2712 1002.6 89.2806 1005.01 89.2892C1004.61 116.548 1004.16 143.807 1003.72 171.066C1003.08 210.447 1002.44 249.828 1001.92 289.209C996.783 289.218 991.651 289.21 986.519 289.202H986.518C976.724 289.186 966.934 289.171 957.144 289.276C956.642 288.471 956.138 287.666 955.634 286.861C951.365 280.04 947.087 273.203 943.437 266.036C946.027 266.036 948.616 266.042 951.205 266.048C959.295 266.068 967.384 266.088 975.464 265.916C975.875 237.749 976.484 209.583 977.093 181.416C977.591 158.423 978.088 135.429 978.477 112.436C976.616 112.438 974.755 112.442 972.894 112.445C964.516 112.46 956.138 112.475 947.771 112.409C947.279 116.011 947.006 119.634 946.733 123.257C946.487 126.514 946.241 129.771 945.837 133.009C941.716 155.974 937.556 178.93 933.396 201.885L933.396 201.889C928.378 229.579 923.36 257.268 918.411 284.969C918.128 286.277 917.751 287.554 917.373 288.836L917.373 288.837L917.3 289.083C917.275 289.169 917.249 289.256 917.224 289.343C912.298 289.144 907.367 289.168 902.437 289.191C899.081 289.207 895.724 289.223 892.371 289.169C896.317 264.948 900.645 240.786 904.973 216.626C907.794 200.873 910.615 185.121 913.331 169.356C914.169 164.182 915.126 159.022 916.084 153.862C918.63 140.139 921.177 126.415 921.477 112.423C914.992 112.451 908.513 112.446 902.031 112.44C899.438 112.438 896.845 112.436 894.251 112.436C894.251 109.863 894.254 107.291 894.257 104.72L894.257 104.704C894.263 99.5539 894.269 94.4082 894.251 89.2625C897.796 89.2525 901.339 89.2538 904.881 89.255C910.786 89.2571 916.689 89.2592 922.597 89.2092C922.682 87.8769 922.773 86.5447 922.865 85.2121C923.177 80.6635 923.489 76.1107 923.531 71.5425Z" fill="#0084CF"/>
<path d="M779.477 79.836C802.803 79.8074 826.121 79.8129 849.443 79.8183L849.454 79.8183C858.777 79.8205 868.1 79.8227 877.424 79.8227C877.424 82.0309 877.426 84.2392 877.429 86.4478C877.434 91.9733 877.439 97.5017 877.411 103.036C859.607 103.014 841.804 103.016 824.001 103.018H823.994C809.16 103.02 794.325 103.021 779.491 103.009C779.491 101.081 779.492 99.1521 779.492 97.2226V97.2213C779.495 91.4263 779.497 85.6273 779.477 79.836Z" fill="#0084CF"/>
<path d="M820.362 150.408C804.996 150.416 789.63 150.425 774.264 150.396C774.277 154.263 774.277 158.129 774.277 161.996C774.277 165.863 774.277 169.729 774.291 173.596C776.952 173.601 779.614 173.596 782.276 173.592C786.536 173.584 790.797 173.576 795.064 173.609C791.251 194.901 787.158 216.14 783.064 237.379C780.072 252.901 777.08 268.425 774.197 283.969C790.356 283.958 806.517 283.964 822.679 283.97C843.457 283.978 864.236 283.986 885.011 283.956C883.083 272.926 881.294 261.873 879.506 250.822C877.136 236.184 874.767 221.549 872.077 206.969C863.757 207.089 855.451 207.049 847.131 206.996C848.082 216.019 849.56 224.977 851.038 233.932C852.523 242.933 854.008 251.933 854.957 260.996C846.618 260.949 838.281 260.956 829.945 260.963C821.608 260.969 813.271 260.976 804.931 260.929C806.967 250.27 809.03 239.616 811.093 228.963C814.663 210.525 818.233 192.087 821.664 173.623C841.651 173.556 861.637 173.583 881.637 173.623C881.902 168.509 881.869 163.396 881.836 158.283C881.819 155.676 881.802 153.069 881.824 150.463C861.337 150.386 840.849 150.397 820.362 150.408Z" fill="#0084CF"/>
<path d="M619.691 71.1826C626.16 71.2926 632.629 71.2676 639.103 71.2426C641.263 71.2343 643.423 71.226 645.584 71.2226C644.557 74.0493 643.691 76.9293 642.864 79.8093C664.394 79.8379 685.923 79.8324 707.453 79.827C716.07 79.8248 724.687 79.8226 733.304 79.8226C733.271 87.5328 733.281 95.243 733.291 102.953C733.306 113.91 733.32 124.866 733.211 135.823C689.477 150.063 645.797 164.476 602.144 178.956C602.037 171.144 602.064 163.345 602.091 155.547L602.091 155.543C611.902 152.2 621.732 148.894 631.564 145.587L631.575 145.583C636.25 144.011 640.924 142.439 645.597 140.863C642.079 135.466 638.459 130.151 634.839 124.835C633.37 122.677 631.9 120.519 630.437 118.356C632.781 118.35 635.124 118.335 637.467 118.32C644.924 118.273 652.384 118.226 659.851 118.449C660.993 120.067 662.066 121.749 663.14 123.433C665.173 126.622 667.209 129.817 669.731 132.583C677.213 130.445 684.594 127.97 691.979 125.493C697.215 123.737 702.454 121.98 707.731 120.343C707.864 114.289 707.824 108.223 707.771 102.169C696.148 101.865 684.509 101.911 672.871 101.956C665.618 101.984 658.366 102.012 651.117 101.956C648.881 102.03 646.636 101.99 644.391 101.949C640.186 101.874 635.979 101.798 631.824 102.476C630.627 105.451 629.279 108.357 627.929 111.265C627.234 112.762 626.539 114.261 625.864 115.769C622.181 115.758 618.5 115.759 614.82 115.759C609.669 115.76 604.52 115.76 599.371 115.729C601.308 111.444 603.218 107.146 605.128 102.848C609.846 92.2318 614.566 81.6126 619.691 71.1826Z" fill="#0084CF"/>
<path fill-rule="evenodd" clip-rule="evenodd" d="M584.18 97.1162C579.506 97.3826 574.832 97.6489 570.171 98.0626C570.054 104.528 570.078 110.994 570.103 117.458C570.12 122.043 570.137 126.627 570.104 131.209C574.343 131.244 578.581 131.243 582.822 131.241C586.638 131.239 590.456 131.237 594.277 131.263C594.329 136.31 594.32 141.363 594.31 146.417C594.305 149.174 594.299 151.932 594.304 154.689C589.464 154.705 584.629 154.707 579.794 154.709C576.57 154.71 573.344 154.711 570.117 154.716C570.131 158.769 570.11 162.824 570.089 166.879C570.048 174.988 570.006 183.098 570.238 191.196C575.357 195.683 580.785 199.85 586.21 204.012L586.21 204.013C588.909 206.084 591.606 208.154 594.264 210.263C594.317 220.476 594.371 230.703 594.224 240.916C588.562 236.753 583.041 232.396 577.518 228.039C575.082 226.117 572.646 224.195 570.197 222.289C570.072 236.288 570.088 250.286 570.105 264.284C570.114 272.579 570.124 280.874 570.104 289.169C565.301 289.233 560.499 289.221 555.699 289.209H555.694C552.393 289.201 549.094 289.193 545.797 289.209L544.237 289.156C544.211 271.433 544.224 253.71 544.238 235.987V235.985C544.258 208.935 544.278 181.886 544.157 154.836C539.847 154.823 535.535 154.852 531.223 154.881C521.904 154.943 512.584 155.005 503.277 154.649C503.394 147.856 503.368 141.053 503.342 134.258C503.338 133.29 503.334 132.323 503.331 131.356C512.241 131.103 521.162 131.141 530.083 131.179C534.806 131.199 539.529 131.219 544.251 131.196C544.239 126.756 544.243 122.316 544.246 117.877V117.875C544.25 111.955 544.255 106.036 544.224 100.116C541.571 100.259 538.918 100.406 536.265 100.553C525.305 101.16 514.342 101.767 503.371 102.089C503.368 101.251 503.365 100.413 503.361 99.5747C503.336 92.8955 503.311 86.2257 503.371 79.5559C516.943 78.7114 530.517 77.9479 544.092 77.1844C561.164 76.2243 578.236 75.2641 595.304 74.1426C595.487 78.5697 595.466 82.9967 595.444 87.4267C595.43 90.4148 595.416 93.4044 595.464 96.3959C591.706 96.6873 587.943 96.9017 584.18 97.1162Z" fill="#0084CF"/>
<path d="M642.935 174.949C636.29 174.939 629.65 174.929 623.011 175.009C619.655 182.674 616.191 190.297 612.728 197.919C609.504 205.013 606.281 212.108 603.144 219.236C611.997 219.329 620.864 219.356 629.744 219.236C631.357 215.196 633.104 211.196 634.851 207.209C646.816 207.182 658.789 207.189 670.763 207.196H670.78C682.75 207.202 694.722 207.209 706.691 207.182C706.757 212.796 706.744 218.409 706.731 224.036C702.292 225.937 697.864 227.868 693.437 229.8C685.07 233.449 676.704 237.098 668.264 240.542C665.361 238.14 662.954 235.182 660.545 232.221C658.848 230.137 657.15 228.051 655.277 226.156C651.584 226.175 647.892 226.149 644.202 226.123H644.199C637.673 226.077 631.152 226.031 624.637 226.236C627.08 229.381 629.733 232.378 632.385 235.374C636.727 240.28 641.067 245.183 644.477 250.729C632.702 255.737 621.006 260.929 609.306 266.124L609.302 266.125L606.651 267.302C606.656 270.293 606.652 273.284 606.648 276.275V276.278C606.641 281.659 606.635 287.041 606.677 292.422C628.428 283.186 650.157 273.9 671.887 264.614L671.894 264.611L671.904 264.607C692.328 255.879 712.753 247.15 733.197 238.462C733.284 228 733.278 217.532 733.272 207.065C733.268 199.739 733.263 192.413 733.291 185.089C709.721 185.01 686.151 185.036 662.59 185.062H662.585C658.305 185.067 654.024 185.072 649.744 185.076C648.144 184.956 646.571 184.796 644.997 184.569C646.664 181.436 648.184 178.209 649.584 174.956C647.367 174.956 645.151 174.952 642.935 174.949Z" fill="#0084CF"/>
<path d="M528.854 168.207C524.317 168.212 519.782 168.217 515.251 168.156C512.032 194.023 509.051 219.924 506.07 245.825C504.877 256.185 503.685 266.545 502.478 276.902C505.131 276.876 507.785 276.883 510.441 276.891C515.753 276.905 521.068 276.92 526.384 276.662C528.056 261.7 529.826 246.747 531.595 231.794C534.103 210.611 536.61 189.428 538.838 168.222C535.509 168.2 532.181 168.204 528.854 168.207Z" fill="#0084CF"/>
<path d="M1146.52 77.6217C1115.43 77.6137 1084.33 77.6058 1053.24 77.6359C1053.17 85.4225 1053.16 93.2092 1053.25 100.996C1070.48 100.996 1087.71 100.997 1104.94 100.998C1156.57 101 1208.19 101.003 1259.81 100.983C1259.85 93.1825 1259.85 85.3825 1259.81 77.5825C1222.04 77.641 1184.28 77.6313 1146.52 77.6217Z" fill="#0084CF"/>
<path d="M1180.61 159.159C1135.73 159.141 1090.86 159.124 1045.98 159.236C1045.98 161.364 1045.98 163.493 1045.98 165.622C1045.97 171.293 1045.96 176.964 1046.01 182.636C1050.79 182.636 1055.56 182.634 1060.33 182.632C1074.65 182.627 1088.96 182.622 1103.28 182.662C1102.18 185.369 1100.89 187.996 1099.41 190.516C1091.12 205.481 1082.86 220.464 1074.61 235.447L1074.6 235.455C1065.51 251.96 1056.42 268.464 1047.28 284.942C1047.28 284.942 1047.28 284.942 1047.28 284.942C1047.14 285.282 1046.92 285.792 1046.71 286.302C1046.5 286.812 1046.28 287.322 1046.14 287.662H1266.4C1266.24 287.376 1266.01 286.95 1265.79 286.524C1265.55 286.097 1265.32 285.67 1265.17 285.382C1261.32 277.204 1257.4 269.054 1253.48 260.905L1253.48 260.903C1247.19 247.823 1240.9 234.743 1234.88 221.542C1228.52 221.244 1222.15 221.292 1215.79 221.341C1212.5 221.367 1209.21 221.392 1205.93 221.369C1208.42 227.008 1211.06 232.584 1213.71 238.161C1217.86 246.919 1222.02 255.68 1225.56 264.689C1220.15 264.371 1214.73 264.422 1209.31 264.473C1205.87 264.506 1202.43 264.538 1199 264.476C1185.11 264.547 1171.22 264.511 1157.33 264.476C1134.85 264.418 1112.37 264.36 1089.9 264.756C1090.77 261.663 1092.37 258.9 1093.96 256.142C1094.64 254.976 1095.31 253.811 1095.93 252.622C1100.21 244.853 1104.5 237.086 1108.78 229.319C1117.35 213.788 1125.92 198.257 1134.45 182.702C1161.95 182.63 1189.46 182.64 1216.96 182.651H1216.97C1234.77 182.658 1252.57 182.665 1270.37 182.649C1270.42 174.809 1270.44 166.982 1270.36 159.156C1240.44 159.182 1210.53 159.171 1180.61 159.159Z" fill="#0084CF"/>
</svg>

