<?xml version="1.0" encoding="utf-8"?>
<!-- Generator: Adobe Illustrator 21.0.0, SVG Export Plug-In . SVG Version: 6.00 Build 0)  -->

<svg width="120" height="48" viewBox="0 0 120 48" fill="none" xmlns="http://www.w3.org/2000/svg">
<path d="M65.4399 8.08699C63.2525 7.16669 60.7993 6.9131 58.4703 7.35212C55.6325 7.87566 53.0052 9.45722 51.1889 11.7205C50.0797 13.0716 49.3051 14.675 48.8247 16.3561C47.2405 16.7528 45.686 17.3527 44.3447 18.3112C41.7161 20.1245 39.8269 23.0027 39.2332 26.1671C38.7191 28.7467 39.0645 31.4858 40.1764 33.8636C41.6176 36.9708 44.3879 39.4153 47.6332 40.4284C49.6897 41.091 51.9054 41.1346 54.0186 40.746C56.797 40.2457 59.4202 38.9259 61.501 37.0007C62.4122 36.1679 63.326 35.3377 64.2399 34.5075C65.3846 33.4676 66.5294 32.4276 67.6691 31.3822C68.557 30.5873 68.804 29.1871 68.275 28.1222C68.0367 27.5963 67.6097 27.2177 67.1857 26.8419C67.036 26.7092 66.8866 26.5768 66.7461 26.4384C66.7508 26.4869 66.7559 26.5362 66.7611 26.586C66.8188 27.1416 66.8837 27.7678 66.4169 28.1631C65.3762 29.1213 64.3249 30.0677 63.2736 31.0142C62.0824 32.0865 60.8913 33.1588 59.7158 34.248C58.2193 35.7546 56.3247 36.8562 54.2763 37.3811C52.3588 37.8679 50.2861 37.9292 48.3983 37.2789C46.5442 36.6504 44.8993 35.4015 43.7996 33.7654C42.4893 31.8403 41.9333 29.4025 42.3166 27.097C42.689 24.741 44.0087 22.5527 45.9181 21.1484C47.3431 20.085 49.0838 19.4823 50.8502 19.3815C51.251 19.376 51.6396 19.0815 51.6666 18.6602C51.8366 17.2545 52.2657 15.8679 53.0268 14.6709C54.3411 12.5467 56.5514 11.0156 58.9871 10.5439C60.6725 10.2303 62.4496 10.3639 64.0473 11.0088C66.3616 11.9141 68.248 13.8283 69.1845 16.1461C65.8002 16.2988 62.4726 17.6036 59.9195 19.86L59.8576 19.9162C57.7421 21.8348 55.6281 23.7522 53.5207 25.6777C52.711 26.3853 52.3926 27.5864 52.7299 28.6103C52.9094 29.2484 53.3776 29.742 53.8621 30.166C53.8837 30.1762 53.9053 30.1864 53.927 30.1967C53.927 30.1967 53.927 30.1967 53.927 30.1967C53.9053 30.1864 53.8837 30.1762 53.8621 30.166C54.1346 30.4237 54.4086 30.6786 54.6946 30.9227C54.4612 30.4605 54.3789 29.9438 54.3613 29.4311C54.3177 29.6676 54.2867 29.9066 54.2557 30.1455C54.2473 30.2096 54.239 30.2737 54.2304 30.3378C54.2304 30.3378 54.2305 30.3378 54.2304 30.3378C54.239 30.2737 54.2473 30.2096 54.2557 30.1455C54.2867 29.9066 54.3177 29.6676 54.3613 29.4311C54.4747 29.2648 54.5934 29.1025 54.727 28.9512C55.8858 27.8766 57.0605 26.8196 58.235 25.7628C59.2749 24.8271 60.3147 23.8916 61.3431 22.944C63.6074 20.6153 66.846 19.271 70.0805 19.3924C72.6727 19.4537 75.215 20.708 76.8437 22.7491C78.073 24.2434 78.7842 26.148 78.8975 28.0841C79.0217 30.3432 78.2754 32.6365 76.8572 34.3857C75.5928 35.9741 73.7792 37.0962 71.8132 37.5447C69.7243 38.041 67.4681 37.7274 65.5735 36.7158C65.1781 36.4813 64.6195 36.4799 64.2835 36.8208C64.0541 37.0254 63.8275 37.2332 63.6009 37.441C63.2115 37.7981 62.8221 38.1551 62.4186 38.4964C64.5736 40.2007 67.348 41.0705 70.0778 40.9955C73.006 40.9601 75.8951 39.7807 78.0595 37.7915C79.5358 36.4431 80.6828 34.7279 81.3642 32.8369C82.1455 30.6964 82.2751 28.3363 81.8608 26.103C81.2644 23.0299 79.4332 20.2499 76.9125 18.4421C75.6428 17.5081 74.1787 16.8864 72.6714 16.4665C72.5844 16.2409 72.5128 16.0097 72.4413 15.7787C72.3464 15.4721 72.2516 15.1658 72.1208 14.8727C70.905 11.8336 68.4423 9.33178 65.4399 8.08699Z" fill="#0084CF"/>
<path d="M61.7075 25.2074C62.6278 24.3512 64.1378 24.2599 65.1404 25.022C65.699 25.4679 66.201 25.9791 66.7461 26.4386C66.8028 27.0276 66.9256 27.7325 66.4169 28.1633C66.0323 27.832 65.6909 27.3903 65.1808 27.2621C64.7477 27.1544 64.3429 27.4175 64.0392 27.7011C62.6709 28.9568 61.2919 30.1989 59.9249 31.4546C59.6132 31.7341 59.3082 32.0272 58.9466 32.2385C58.3191 32.6094 57.5432 32.6394 56.8496 32.4799C55.9577 32.2494 55.3896 31.4682 54.6946 30.9228C54.4612 30.4607 54.3789 29.9439 54.3613 29.4313C54.4747 29.2649 54.5934 29.1027 54.727 28.9514C55.1831 29.2731 55.5461 29.8798 56.1709 29.828C56.4934 29.8567 56.7862 29.7067 57.0116 29.4858C58.5742 28.0583 60.1408 26.6308 61.7075 25.2074Z" fill="#90C221"/>
</svg>
