<svg width="39" height="24" xmlns="http://www.w3.org/2000/svg" fill="none">

 <g>
  <title>Layer 1</title>
  <path stroke="null" id="svg_1" fill="#DE0629" d="m25.2169,3.24826c3.06573,-0.62188 6.16322,1.02195 7.32736,3.90537c3.75369,0.93748 6.5319,4.29621 6.5319,8.29921c0,4.7272 -3.87492,8.5613 -8.66261,8.5613c-3.60983,0 -6.70251,-2.1815 -8.0017,-5.2824c-0.40004,-0.942 -0.62936,-1.9726 -0.6519,-3.0523l-2.19148,0c-0.152,0 -0.22805,-0.1816 -0.12064,-0.2878l4.45792,-4.4058c0.0833,-0.0824 0.21815,-0.0824 0.30155,-0.0001l4.46184,4.4059c0.10741,0.106 0.03136,0.2878 -0.12064,0.2878l-2.31456,0c0.07615,0.541 0.24657,1.0778 0.529,1.585c1.264,2.269 4.1799,3.0689 6.4532,1.7421c1.98519,-1.1585 2.82387,-3.668 1.91708,-5.7627c-0.94884,-2.1925 -3.3516,-3.2256 -5.52475,-2.6381c0.4507,-1.43004 -0.15317,-3.02483 -1.52841,-3.78581c-1.37514,-0.76098 -3.06632,-0.43583 -4.06416,0.69143l-0.00167,-0.00022c-1.10818,-2.60643 -3.85601,-4.28887 -6.83873,-3.94003c-3.2193,0.37637 -5.61344,2.9964 -5.79356,6.08759c-1.60602,-0.85323 -3.63502,-0.87605 -5.34922,0.21797c-1.90779,1.21777 -2.80873,3.58657 -2.17794,5.74297c0.68906,2.3563 2.81461,3.7676 5.04782,3.7682l11.67204,0c0.08898,0 0.16836,0.053 0.20335,0.1339c0.54606,1.262 1.33711,2.3954 2.31525,3.3407c0.08673,0.0839 0.0296,0.2274 -0.09173,0.2274l-14.09147,0c-0.00377,0 -0.00744,0.0003 -0.01121,0.0003c-4.95837,0 -8.98171,-3.9764 -8.98171,-8.8769c0,-4.90481 4.02334,-8.87665 8.98171,-8.87665l0.01344,0c1.67235,-3.16337 5.02581,-5.32245 8.88721,-5.32245c2.9401,0 5.58335,1.24826 7.41742,3.23412zm56.73005,2.97339l15.46009,0l0,-1.47423l-15.46009,0l0,1.47423zm-26.82926,4.25349l0,-4.25337l6.44811,0l0,-1.47423l-15.46028,0l0,1.47423l6.44791,0l0,4.25107l-0.00049,0.0143l-6.95722,0l0,1.4744l6.77513,0c-0.44923,2.1309 -1.93717,5.1172 -6.77513,6.4221l0,1.5249c4.73232,-0.7064 7.07619,-3.1914 8.23984,-5.5028c1.16395,2.3114 3.50791,4.7964 8.24013,5.5028l0,-1.5249c-4.83787,-1.3049 -6.326,-4.2912 -6.77533,-6.4221l6.77533,0l0,-1.4744l-6.95731,0l-0.0002,-0.0033l-0.00049,-0.0087zm42.79944,-0.1506l0,1.4741l-11.20924,0l-2.21696,6.4698l4.90833,0l0.98696,0l4.85668,0l-1.68413,-4.3405l2.24802,0l1.54448,3.9807c0.1811,0.4662 0.11819,0.9907 -0.16827,1.4021c-0.28636,0.412 -0.75901,0.6578 -1.26479,0.6578l-5.532,0l-0.98696,0l-5.57257,0c-0.49353,0 -0.95971,-0.2366 -1.24715,-0.6328c-0.28763,-0.3962 -0.36485,-0.9085 -0.20668,-1.3704l2.11288,-6.1667l-3.04868,0l0,-1.4741l16.48007,0zm-28.53858,6.2544l4.87099,0l0,-0.8318l-4.87099,0l0,0.8318zm0,-1.8235l4.87099,0l0,-0.8319l-4.87099,0l0,0.8319zm-3.51693,-1.7699l5.00476,0l0,-0.7746l-5.00476,0l0,0.7746zm0,-1.525l5.00476,0l0,-0.7745l-5.00476,0l0,0.7745zm6.90028,0l5.00466,0l0,-0.7745l-5.00466,0l0,0.7745zm0,1.525l5.00466,0l0,-0.7746l-5.00466,0l0,0.7746zm3.73468,4.5852l3.33778,0l0,-0.9918l-3.43441,0l0,-0.8318l3.43441,0l0,-0.9917l-3.43441,0l0,-0.8319l1.36661,0l0.65376,0l0.6274,0c0.33928,0 0.61417,-0.2717 0.61417,-0.6069l0,-2.9615c0,-0.3354 -0.27489,-0.60711 -0.61417,-0.60711l-0.6274,0l-0.65376,0l-11.90494,0l-0.3089,0l-0.97226,0c-0.33918,0 -0.61426,0.27171 -0.61426,0.60711l0,2.9615c0,0.3352 0.27509,0.6069 0.61426,0.6069l0.97226,0l0.3089,0l1.36661,0l0,0.8319l-3.43451,0l0,0.9917l3.43451,0l0,0.8318l-3.43451,0l0,0.9918l3.33798,0c-0.19786,0.5193 -0.86407,1.0574 -1.80477,1.2085c-0.48481,0.078 -0.88621,0.1183 -1.54997,0.1331l0,1.064c1.05673,0 1.93305,-0.0734 2.75733,-0.2304c1.37122,-0.261 2.37875,-1.0937 2.71832,-2.1752l5.12266,0c0.33967,1.0815 1.34721,1.9142 2.71852,2.1752c0.82418,0.157 1.70059,0.2304 2.75723,0.2304l0,-1.064c-0.66366,-0.0148 -1.06506,-0.0551 -1.54997,-0.1331c-0.9406,-0.1511 -1.60681,-0.6892 -1.80447,-1.2085zm-6.37784,-8.55946l-0.18718,0l-0.41415,0l-5.68684,0l0,-0.95054l5.31728,0c0.20413,0 0.36956,-0.16345 0.36956,-0.36507l0,-0.4411l-5.34433,0l0,-0.75045l5.34433,0l0,-0.44109c0,-0.20163 -0.16542,-0.36519 -0.36956,-0.36519l-5.31728,0l0,-0.95042l5.68684,0l0.41415,0l0.18718,0c0.71471,0 1.29409,0.57262 1.29409,1.27908l0,1.7058c0,0.70635 -0.57938,1.27898 -1.29409,1.27898zm8.19741,0l0.18728,0c0.71452,0 1.29399,-0.57263 1.29399,-1.27898l0,-1.7058c0,-0.70646 -0.57947,-1.27908 -1.29399,-1.27908l-0.18728,0l-0.41415,0l-5.68694,0l0,0.95042l5.31738,0c0.20413,0 0.36956,0.16356 0.36956,0.36519l0,0.44109l-5.34433,0l0,0.75045l5.34433,0l0,0.4411c0,0.20162 -0.16542,0.36507 -0.36956,0.36507l-5.31738,0l0,0.95054l5.68694,0l0.41415,0z" clip-rule="evenodd" fill-rule="evenodd"/>
 </g>
</svg>