<svg width="100" height="24" viewBox="0 0 100 24" fill="none" xmlns="http://www.w3.org/2000/svg">
<path fill-rule="evenodd" clip-rule="evenodd" d="M25.8161 3.23412C28.9444 2.61224 32.1051 4.25607 33.293 7.13949C37.1233 8.07697 39.9582 11.4357 39.9582 15.4387C39.9582 20.1659 36.0042 24 31.1188 24C27.4353 24 24.2795 21.8185 22.9538 18.7176C22.5456 17.7756 22.3116 16.745 22.2886 15.6653H20.0524C19.8973 15.6653 19.8197 15.4837 19.9293 15.3775L24.4782 10.9717C24.5632 10.8893 24.7008 10.8893 24.7859 10.9716L29.3388 15.3775C29.4484 15.4835 29.3708 15.6653 29.2157 15.6653H26.8539C26.9316 16.2063 27.1055 16.7431 27.3937 17.2503C28.6835 19.5193 31.6589 20.3192 33.9786 18.9924C36.0043 17.8339 36.8601 15.3244 35.9348 13.2297C34.9666 11.0372 32.5148 10.0041 30.2973 10.5916C30.7572 9.16156 30.141 7.56677 28.7377 6.80579C27.3345 6.04481 25.6088 6.36996 24.5906 7.49722L24.5889 7.497C23.4581 4.89057 20.6542 3.20813 17.6106 3.55697C14.3256 3.93334 11.8826 6.55337 11.6988 9.64456C10.06 8.79133 7.9896 8.76851 6.24041 9.86253C4.29369 11.0803 3.37436 13.4491 4.01802 15.6055C4.72114 17.9618 6.89007 19.3731 9.16886 19.3737H21.0791C21.1699 19.3737 21.2509 19.4267 21.2866 19.5076C21.8438 20.7696 22.651 21.903 23.6491 22.8483C23.7376 22.9322 23.6793 23.0757 23.5555 23.0757H9.17645C9.1726 23.0757 9.16886 23.076 9.16501 23.076C4.10545 23.076 0 19.0996 0 14.1991C0 9.29429 4.10545 5.32245 9.16501 5.32245H9.17872C10.8852 2.15908 14.3071 0 18.2473 0C21.2474 0 23.9446 1.24826 25.8161 3.23412ZM83.7039 6.20751H99.4795V4.73328H83.7039V6.20751ZM56.3271 10.461V6.20763H62.9068V4.7334H47.131V6.20763H53.7105V10.4587L53.71 10.473H46.6108V11.9474H53.5242C53.0658 14.0783 51.5475 17.0646 46.6108 18.3695V19.8944C51.4397 19.188 53.8314 16.703 55.0188 14.3916C56.2065 16.703 58.5983 19.188 63.4271 19.8944V18.3695C58.4905 17.0646 56.972 14.0783 56.5135 11.9474H63.4271V10.473H56.3278L56.3276 10.4697L56.3271 10.461ZM100 10.3104V11.7845H88.562L86.2998 18.2543H91.3083H92.3154H97.2712L95.5527 13.9138H97.8466L99.4226 17.8945C99.6074 18.3607 99.5432 18.8852 99.2509 19.2966C98.9587 19.7086 98.4764 19.9544 97.9603 19.9544H92.3154H91.3083H85.622C85.1184 19.9544 84.6427 19.7178 84.3494 19.3216C84.0559 18.9254 83.9771 18.4131 84.1385 17.9512L86.2945 11.7845H83.1836V10.3104H100ZM70.879 16.5648H75.8494V15.733H70.879V16.5648ZM70.879 14.7413H75.8494V13.9094H70.879V14.7413ZM67.2903 12.9714H72.3972V12.1968H67.2903V12.9714ZM67.2903 11.4464H72.3972V10.6719H67.2903V11.4464ZM74.3314 11.4464H79.4382V10.6719H74.3314V11.4464ZM74.3314 12.9714H79.4382V12.1968H74.3314V12.9714ZM78.1423 17.5566H81.5482V16.5648H78.0437V15.733H81.5482V14.7413H78.0437V13.9094H79.4382H80.1053H80.7455C81.0917 13.9094 81.3722 13.6377 81.3722 13.3025V10.341C81.3722 10.0056 81.0917 9.73389 80.7455 9.73389H80.1053H79.4382H67.2903H66.9751H65.983C65.6369 9.73389 65.3562 10.0056 65.3562 10.341V13.3025C65.3562 13.6377 65.6369 13.9094 65.983 13.9094H66.9751H67.2903H68.6848V14.7413H65.1802V15.733H68.6848V16.5648H65.1802V17.5566H68.5863C68.3844 18.0759 67.7046 18.614 66.7447 18.7651C66.25 18.8431 65.8404 18.8834 65.1631 18.8982V19.9622C66.2414 19.9622 67.1356 19.8888 67.9767 19.7318C69.3759 19.4708 70.404 18.6381 70.7505 17.5566H75.9777C76.3243 18.6381 77.3524 19.4708 78.7517 19.7318C79.5927 19.8888 80.487 19.9622 81.5652 19.9622V18.8982C80.888 18.8834 80.4784 18.8431 79.9836 18.7651C79.0238 18.614 78.344 18.0759 78.1423 17.5566ZM71.6343 8.99714H71.4433H71.0207H65.2178V8.0466H70.6436C70.8519 8.0466 71.0207 7.88315 71.0207 7.68153V7.24043H65.5673V6.48998H71.0207V6.04889C71.0207 5.84726 70.8519 5.6837 70.6436 5.6837H65.2178V4.73328H71.0207H71.4433H71.6343C72.3636 4.73328 72.9548 5.3059 72.9548 6.01236V7.71816C72.9548 8.42451 72.3636 8.99714 71.6343 8.99714ZM79.999 8.99714H80.1901C80.9192 8.99714 81.5105 8.42451 81.5105 7.71816V6.01236C81.5105 5.3059 80.9192 4.73328 80.1901 4.73328H79.999H79.5764H73.7734V5.6837H79.1993C79.4076 5.6837 79.5764 5.84726 79.5764 6.04889V6.48998H74.123V7.24043H79.5764V7.68153C79.5764 7.88315 79.4076 8.0466 79.1993 8.0466H73.7734V8.99714H79.5764H79.999Z" fill="#DE0629"/>
</svg>
