<svg xmlns="http://www.w3.org/2000/svg" width="27" height="27" viewBox="0 0 39 27" fill="none">
   <path d="M28.1414 6.60807H26.2414C24.5414 1.50807 19.0414 -1.19192 13.9414 0.508075C10.8414 1.50808 8.5414 4.00807 7.6414 7.10807C2.4414 8.30807 -0.958602 13.4081 0.241398 18.7081C0.941398 22.0081 3.3414 24.7081 6.5414 25.8081L7.1414 23.5081C3.3414 22.1081 1.4414 17.8081 2.9414 14.0081C4.0414 11.2081 6.7414 9.30807 9.7414 9.30807C9.7414 8.50807 9.9414 7.70808 10.3414 6.90808C11.8414 3.20808 16.1414 1.40808 19.9414 2.90808C21.6414 3.60808 23.0414 4.90807 23.8414 6.60807C24.1414 7.30807 24.4414 8.10808 24.4414 8.90808H28.2414C32.5414 8.90808 36.0414 12.4081 36.0414 16.7081C36.0414 21.0081 32.5414 24.5081 28.2414 24.5081H23.8414L23.9414 26.9081H28.3414C33.9414 26.9081 38.5414 22.4081 38.5414 16.7081C38.5414 11.0081 33.7414 6.70807 28.1414 6.60807V6.60807Z" fill="#007BBC"/>
   <path d="M17.4415 11.9081H10.2415L9.6415 14.3081L8.0415 20.3081H10.4415L12.0415 14.3081H16.8415L17.4415 11.9081Z" fill="#007BBC"/>
   <path d="M29.3412 20.3081H24.5412L23.9412 22.7081H26.9412C26.8412 23.0081 26.5412 23.4081 26.3412 23.6081C25.1412 24.8081 23.2412 24.8081 22.1412 23.6081C20.8412 22.2081 18.5412 19.1081 17.2412 17.7081C15.2412 15.5081 11.7412 15.6081 9.64121 17.7081C8.94121 18.4081 8.44121 19.3081 8.24121 20.3081H10.7412C10.9412 20.0081 11.1412 19.6081 11.3412 19.4081C12.5412 18.2081 14.4412 18.2081 15.5412 19.4081C16.8412 20.8081 19.1412 23.9081 20.4412 25.3081C22.4412 27.5081 25.9412 27.4081 28.0412 25.3081C29.2412 24.0081 29.7412 22.1081 29.3412 20.3081Z" fill="#007BBC"/>
   <path d="M26.6413 17.908C26.5413 17.908 26.3413 18.008 26.3413 18.208C26.3413 18.308 26.4413 18.508 26.6413 18.508C26.7413 18.508 26.9413 18.408 26.9413 18.208C26.9413 18.108 26.8413 17.908 26.6413 17.908ZM26.8413 17.508C26.8413 17.708 26.9413 17.808 27.1413 17.808C27.3413 17.808 27.4413 17.708 27.4413 17.508C27.4413 17.308 27.3413 17.208 27.1413 17.208C26.9413 17.308 26.8413 17.408 26.8413 17.508ZM27.7413 17.808C27.6413 17.808 27.4413 17.908 27.4413 18.108C27.4413 18.208 27.5413 18.408 27.7413 18.408C27.8413 18.408 28.0413 18.308 28.0413 18.108C28.0413 17.908 27.9413 17.808 27.7413 17.808ZM27.7413 19.308C27.6413 19.308 27.5413 19.408 27.5413 19.508C27.5413 19.608 27.6413 19.708 27.7413 19.708C27.8413 19.708 27.9413 19.608 27.9413 19.508C27.9413 19.408 27.8413 19.308 27.7413 19.308ZM28.2413 18.508C28.1413 18.508 27.9413 18.608 27.9413 18.808C27.9413 18.908 28.0413 19.108 28.2413 19.108C28.4413 19.108 28.5413 19.008 28.5413 18.808C28.5413 18.608 28.4413 18.508 28.2413 18.508ZM28.7413 19.208C28.6413 19.208 28.5413 19.308 28.5413 19.408C28.5413 19.508 28.6413 19.608 28.7413 19.608C28.8413 19.608 28.9413 19.608 28.9413 19.508C28.9413 19.308 28.8413 19.208 28.7413 19.208V19.208ZM27.3413 18.608C27.2413 18.608 27.0413 18.708 27.0413 18.908C27.0413 19.008 27.1413 19.208 27.3413 19.208C27.5413 19.208 27.6413 19.108 27.6413 18.908C27.5413 18.708 27.4413 18.608 27.3413 18.608ZM26.7413 19.308C26.6413 19.308 26.5413 19.408 26.5413 19.508C26.5413 19.608 26.6413 19.708 26.7413 19.708C26.8413 19.708 26.9413 19.608 26.9413 19.508C27.0413 19.408 26.9413 19.308 26.7413 19.308ZM26.2413 18.608C26.1413 18.608 25.9413 18.708 25.9413 18.908C25.9413 19.008 26.0413 19.208 26.2413 19.208C26.4413 19.208 26.5413 19.108 26.5413 18.908C26.5413 18.708 26.4413 18.608 26.2413 18.608ZM26.1413 18.308V18.108C26.0413 18.008 26.0413 17.808 26.1413 17.708C26.1413 17.708 26.2413 17.708 26.2413 17.608H26.4413C26.5413 17.608 26.5413 17.608 26.5413 17.508V17.408C26.4413 17.308 26.4413 17.108 26.5413 17.008C26.5413 17.008 26.6413 17.008 26.6413 16.908H26.9413V16.808C24.8413 15.508 22.0413 15.708 20.2413 17.608C19.8413 18.008 19.3413 18.608 18.8413 19.308C19.1413 19.708 19.5413 20.108 19.8413 20.508L20.3413 21.208C20.9413 20.508 21.4413 19.808 21.9413 19.308C22.9413 18.308 24.5413 18.108 25.6413 18.908H25.7413V18.808C25.6413 18.708 25.6413 18.608 25.6413 18.608C25.6413 18.508 25.7413 18.408 25.8413 18.408H25.9413C26.1413 18.408 26.1413 18.408 26.1413 18.308V18.308ZM26.1413 16.708C26.3413 16.708 26.4413 16.808 26.4413 17.008C26.4413 17.208 26.3413 17.308 26.1413 17.308C25.9413 17.308 25.8413 17.208 25.8413 17.008C25.8413 16.808 25.9413 16.608 26.1413 16.708C26.1413 16.608 26.1413 16.608 26.1413 16.708ZM25.2413 16.408C25.3413 16.408 25.5413 16.508 25.5413 16.708C25.5413 16.808 25.4413 17.008 25.2413 17.008C25.0413 17.008 24.9413 16.808 24.9413 16.708C24.9413 16.508 25.1413 16.408 25.2413 16.408ZM24.4413 16.308C24.5413 16.308 24.7413 16.408 24.7413 16.608C24.7413 16.808 24.6413 16.908 24.4413 16.908C24.3413 16.908 24.1413 16.808 24.1413 16.608C24.2413 16.408 24.3413 16.308 24.4413 16.308ZM23.3413 16.508C23.3413 16.408 23.4413 16.308 23.5413 16.308C23.6413 16.308 23.7413 16.408 23.7413 16.508C23.7413 16.608 23.6413 16.708 23.5413 16.708C23.4413 16.808 23.3413 16.608 23.3413 16.508ZM23.9413 17.608C23.8413 17.608 23.6413 17.508 23.6413 17.308C23.6413 17.208 23.7413 17.008 23.9413 17.008C24.1413 17.008 24.2413 17.108 24.2413 17.308C24.2413 17.508 24.1413 17.608 23.9413 17.608ZM24.4413 18.308C24.3413 18.308 24.1413 18.208 24.1413 18.008C24.1413 17.808 24.2413 17.708 24.4413 17.708C24.5413 17.708 24.7413 17.808 24.7413 18.008C24.6413 18.208 24.5413 18.308 24.4413 18.308ZM24.8413 17.608C24.7413 17.608 24.5413 17.508 24.5413 17.308C24.5413 17.208 24.6413 17.008 24.8413 17.008C25.0413 17.008 25.1413 17.108 25.1413 17.308C25.1413 17.508 25.0413 17.608 24.8413 17.608C24.8413 17.708 24.8413 17.708 24.8413 17.608ZM25.3413 18.608C25.1413 18.608 25.0413 18.508 25.0413 18.308C25.0413 18.108 25.1413 18.008 25.3413 18.008C25.5413 18.008 25.6413 18.108 25.6413 18.308C25.6413 18.408 25.5413 18.608 25.3413 18.608ZM25.7413 17.908C25.5413 17.908 25.4413 17.808 25.4413 17.608C25.4413 17.408 25.5413 17.308 25.7413 17.308C25.9413 17.308 26.0413 17.408 26.0413 17.608C26.0413 17.708 25.8413 17.908 25.7413 17.908Z" fill="#88B82E"/>
   <path d="M8.64121 22.708C8.64121 22.608 8.54121 22.508 8.44121 22.508C8.34121 22.508 8.24121 22.608 8.24121 22.708C8.24121 22.808 8.34121 22.908 8.44121 22.908C8.54121 23.008 8.64121 22.908 8.64121 22.708ZM8.94121 23.508C8.94121 23.408 8.84121 23.208 8.74121 23.208C8.64121 23.208 8.44121 23.308 8.44121 23.408C8.44121 23.508 8.54121 23.708 8.64121 23.708C8.84121 23.808 8.94121 23.708 8.94121 23.508ZM9.04121 23.908C8.94121 23.908 8.74121 24.008 8.74121 24.208C8.74121 24.308 8.84121 24.508 9.04121 24.508C9.14121 24.508 9.34121 24.408 9.34121 24.208C9.34121 24.108 9.24121 23.908 9.04121 23.908ZM11.3412 24.608C11.5412 24.608 11.6412 24.508 11.6412 24.308C11.6412 24.108 11.5412 24.008 11.3412 24.008C11.1412 24.008 11.0412 24.108 11.0412 24.308C11.0412 24.508 11.1412 24.608 11.3412 24.608ZM9.34121 22.908C9.44121 22.908 9.54121 22.808 9.54121 22.708C9.54121 22.608 9.44121 22.508 9.34121 22.508C9.24121 22.508 9.14121 22.608 9.14121 22.708C9.04121 22.808 9.14121 23.008 9.34121 22.908C9.34121 23.008 9.24121 23.008 9.34121 22.908ZM9.64121 24.508C9.44121 24.508 9.34121 24.608 9.34121 24.808C9.34121 25.008 9.44121 25.108 9.64121 25.108C9.74121 25.108 9.94121 25.008 9.94121 24.808L9.64121 24.508ZM10.6412 23.908C10.7412 23.908 10.9412 23.808 10.9412 23.708C10.9412 23.608 10.8412 23.408 10.7412 23.408C10.6412 23.408 10.4412 23.508 10.4412 23.608C10.3412 23.708 10.4412 23.908 10.6412 23.908ZM10.1412 22.908C10.2412 22.908 10.3412 22.808 10.3412 22.708C10.3412 22.608 10.2412 22.508 10.1412 22.508C10.0412 22.508 9.94121 22.608 9.94121 22.708C9.94121 22.808 10.0412 22.908 10.1412 22.908ZM10.5412 24.908C10.5412 25.108 10.6412 25.208 10.8412 25.208C11.0412 25.208 11.1412 25.108 11.1412 24.908C11.1412 24.708 11.0412 24.608 10.8412 24.608C10.6412 24.608 10.5412 24.708 10.5412 24.908ZM9.44121 23.508C9.44121 23.608 9.54121 23.808 9.64121 23.808C9.74121 23.808 9.94121 23.708 9.94121 23.508C9.94121 23.408 9.84121 23.208 9.74121 23.208C9.54121 23.308 9.44121 23.408 9.44121 23.508ZM10.1412 24.508C10.2412 24.508 10.4412 24.408 10.4412 24.208C10.4412 24.108 10.3412 23.908 10.1412 23.908C10.0412 23.908 9.84121 24.008 9.84121 24.208C9.84121 24.408 9.94121 24.508 10.1412 24.508ZM17.0412 21.708C16.4412 22.408 15.8412 23.108 15.4412 23.608C14.5412 24.508 13.2412 24.808 12.0412 24.208H11.9412V24.508C11.9412 24.608 11.8412 24.708 11.7412 24.708H11.5412H11.4412V25.008C11.4412 25.108 11.3412 25.208 11.2412 25.208H11.0412H10.9412V25.508C10.9412 25.608 10.8412 25.708 10.8412 25.708C10.7412 25.808 10.6412 25.808 10.5412 25.708H10.4412V25.808C12.5412 27.208 15.5412 27.008 17.2412 25.108C17.6412 24.708 18.1412 24.108 18.6412 23.408C18.3412 23.108 18.1412 22.708 17.8412 22.408L17.0412 21.708ZM13.0412 24.708C13.1412 24.708 13.3412 24.808 13.3412 25.008C13.3412 25.108 13.2412 25.308 13.0412 25.308C12.9412 25.308 12.7412 25.208 12.7412 25.008C12.7412 24.808 12.8412 24.708 13.0412 24.708ZM12.3412 24.608C12.4412 24.608 12.6412 24.708 12.6412 24.908C12.6412 25.008 12.5412 25.208 12.3412 25.208C12.2412 25.208 12.0412 25.108 12.0412 24.908C12.0412 24.708 12.1412 24.608 12.3412 24.608ZM11.2412 26.408C11.0412 26.408 10.9412 26.308 10.9412 26.108C10.9412 25.908 11.0412 25.808 11.2412 25.808C11.4412 25.808 11.5412 25.908 11.5412 26.108C11.5412 26.208 11.4412 26.408 11.2412 26.408ZM11.4412 25.508C11.4412 25.308 11.5412 25.208 11.7412 25.208C11.9412 25.208 12.0412 25.308 12.0412 25.508C12.0412 25.708 11.9412 25.808 11.7412 25.808C11.6412 25.808 11.4412 25.608 11.4412 25.508ZM12.0412 26.608C11.9412 26.608 11.7412 26.508 11.7412 26.308C11.7412 26.208 11.8412 26.008 12.0412 26.008C12.1412 26.008 12.3412 26.108 12.3412 26.308C12.3412 26.508 12.2412 26.608 12.0412 26.608ZM12.2412 25.708C12.2412 25.608 12.3412 25.408 12.5412 25.408C12.6412 25.408 12.8412 25.508 12.8412 25.708C12.8412 25.808 12.7412 26.008 12.5412 26.008C12.3412 26.008 12.2412 25.808 12.2412 25.708ZM12.9412 26.808C12.8412 26.808 12.6412 26.708 12.6412 26.508C12.6412 26.408 12.7412 26.208 12.9412 26.208C13.0412 26.208 13.2412 26.308 13.2412 26.508C13.1412 26.608 13.0412 26.808 12.9412 26.808ZM13.3412 26.008C13.2412 26.008 13.0412 25.908 13.0412 25.708C13.0412 25.608 13.1412 25.408 13.3412 25.408C13.4412 25.408 13.6412 25.508 13.6412 25.708C13.5412 25.908 13.4412 26.008 13.3412 26.008ZM13.7412 26.808C13.6412 26.808 13.5412 26.708 13.5412 26.608C13.5412 26.508 13.6412 26.408 13.7412 26.408C13.8412 26.408 13.9412 26.508 13.9412 26.608C13.9412 26.708 13.9412 26.808 13.7412 26.808ZM10.5412 25.408C10.5412 25.208 10.4412 25.108 10.2412 25.108C10.0412 25.108 9.94121 25.208 9.94121 25.408C9.94121 25.608 10.0412 25.708 10.2412 25.708C10.4412 25.708 10.5412 25.608 10.5412 25.408Z" fill="#007BBC"/>
</svg>